<?xml version="1.0" encoding="utf-8"?>
<!-- Generator: Adobe Illustrator 16.0.0, SVG Export Plug-In . SVG Version: 6.00 Build 0)  -->
<!DOCTYPE svg PUBLIC "-//W3C//DTD SVG 1.1//EN" "http://www.w3.org/Graphics/SVG/1.1/DTD/svg11.dtd">
<svg version="1.1" id="Layer_1" xmlns="http://www.w3.org/2000/svg" xmlns:xlink="http://www.w3.org/1999/xlink" x="0px" y="0px"
	 width="182.8px" height="198px" viewBox="0 0 182.8 198" style="enable-background:new 0 0 182.8 198;" xml:space="preserve">
<path d="M0,152.3h93.8c-3.7,15.4-12.9,28.9-25.9,38.1L57.1,198H0V152.3z"/>
<path d="M60.9,0h34.7v45.7H60.9c-8.4,0-15.2,6.8-15.2,15.2c0,2.1,0.4,4.1,1.2,5.9c0.5,1.3,1.3,2.5,2.2,3.6c1.8,2.2,4.1,3.9,6.9,4.8
	l12,8.5c12.7,8.9,21.8,22.1,25.6,37c0.1,0.3,0.2,0.7,0.3,1.1H60.9c-28.4,0-52.2-19.4-59-45.7C0.7,71.3,0,66.2,0,60.9
	C0,27.3,27.3,0,60.9,0z"/>
<path d="M46.9,66.8c0.5,1.3,1.3,2.5,2.2,3.6l-5.2-3.6H46.9z"/>
<path d="M169.4,99c8.4,10.4,13.4,23.7,13.4,38.1c0,33.7-27.3,60.9-60.9,60.9H73.2c15.2-10.7,26.2-26.9,30.1-45.7h18.5
	c8.4,0,15.2-6.8,15.2-15.2s-6.8-15.2-15.2-15.2h-18.5c-0.2-1.1-0.5-2.3-0.8-3.4C98,100.9,87.4,86.1,73.3,76.2h48.5
	c8.4,0,15.2-6.8,15.2-15.2c0-8.4-6.8-15.2-15.2-15.2h-16.9V0h16.9c33.6,0,60.9,27.3,60.9,60.9C182.8,75.3,177.8,88.6,169.4,99z"/>
</svg>
